<mxfile host="app.diagrams.net" modified="2023-04-01T19:17:47.780Z" agent="Mozilla/5.0 (Macintosh; Intel Mac OS X 10_15_7) AppleWebKit/537.36 (KHTML, like Gecko) Chrome/111.0.0.0 Safari/537.36" etag="Pu8pK6HLzEpXubsERfzc" version="21.1.2" type="github">
  <diagram name="第 1 页" id="LYToZndpgdPRDlfCrlT4">
    <mxGraphModel dx="2069" dy="739" grid="1" gridSize="10" guides="1" tooltips="1" connect="1" arrows="1" fold="1" page="1" pageScale="1" pageWidth="827" pageHeight="1169" math="0" shadow="0">
      <root>
        <mxCell id="0" />
        <mxCell id="1" parent="0" />
        <mxCell id="lx1pQPTJVr5pFZ4xOF1r-17" value="" style="ellipse;shape=cloud;whiteSpace=wrap;html=1;strokeWidth=2;fillColor=#e3c800;fontColor=#000000;strokeColor=#B09500;" vertex="1" parent="1">
          <mxGeometry x="-130" y="350" width="750" height="220" as="geometry" />
        </mxCell>
        <mxCell id="lx1pQPTJVr5pFZ4xOF1r-11" value="" style="group" vertex="1" connectable="0" parent="1">
          <mxGeometry x="270" y="240" width="120" height="30" as="geometry" />
        </mxCell>
        <mxCell id="lx1pQPTJVr5pFZ4xOF1r-1" value="" style="rounded=0;whiteSpace=wrap;html=1;fillColor=#f8cecc;strokeColor=#b85450;strokeWidth=2;" vertex="1" parent="lx1pQPTJVr5pFZ4xOF1r-11">
          <mxGeometry y="10" width="20" height="20" as="geometry" />
        </mxCell>
        <mxCell id="lx1pQPTJVr5pFZ4xOF1r-2" value="" style="rounded=0;whiteSpace=wrap;html=1;fillColor=#f8cecc;strokeColor=#b85450;strokeWidth=2;" vertex="1" parent="lx1pQPTJVr5pFZ4xOF1r-11">
          <mxGeometry x="20" y="10" width="20" height="20" as="geometry" />
        </mxCell>
        <mxCell id="lx1pQPTJVr5pFZ4xOF1r-3" value="" style="rounded=0;whiteSpace=wrap;html=1;fillColor=#f8cecc;strokeColor=#b85450;strokeWidth=2;" vertex="1" parent="lx1pQPTJVr5pFZ4xOF1r-11">
          <mxGeometry x="40" y="10" width="20" height="20" as="geometry" />
        </mxCell>
        <mxCell id="lx1pQPTJVr5pFZ4xOF1r-4" value="" style="rounded=0;whiteSpace=wrap;html=1;fillColor=#f8cecc;strokeColor=#b85450;strokeWidth=2;" vertex="1" parent="lx1pQPTJVr5pFZ4xOF1r-11">
          <mxGeometry x="80" y="10" width="20" height="20" as="geometry" />
        </mxCell>
        <mxCell id="lx1pQPTJVr5pFZ4xOF1r-5" value="" style="rounded=0;whiteSpace=wrap;html=1;fillColor=#f8cecc;strokeColor=#b85450;strokeWidth=2;" vertex="1" parent="lx1pQPTJVr5pFZ4xOF1r-11">
          <mxGeometry x="100" y="10" width="20" height="20" as="geometry" />
        </mxCell>
        <mxCell id="lx1pQPTJVr5pFZ4xOF1r-8" value="&lt;font style=&quot;font-size: 19px;&quot;&gt;...&lt;/font&gt;" style="text;strokeColor=none;align=center;fillColor=none;html=1;verticalAlign=middle;whiteSpace=wrap;rounded=0;" vertex="1" parent="lx1pQPTJVr5pFZ4xOF1r-11">
          <mxGeometry x="50" width="40" height="30" as="geometry" />
        </mxCell>
        <mxCell id="lx1pQPTJVr5pFZ4xOF1r-13" style="edgeStyle=orthogonalEdgeStyle;rounded=0;orthogonalLoop=1;jettySize=auto;html=1;entryX=0;entryY=0.5;entryDx=0;entryDy=0;strokeWidth=2;" edge="1" parent="1" target="lx1pQPTJVr5pFZ4xOF1r-1">
          <mxGeometry relative="1" as="geometry">
            <mxPoint x="200" y="260" as="sourcePoint" />
          </mxGeometry>
        </mxCell>
        <mxCell id="lx1pQPTJVr5pFZ4xOF1r-14" value="&lt;font style=&quot;font-size: 13px;&quot;&gt;databus&lt;/font&gt;" style="text;strokeColor=none;align=center;fillColor=none;html=1;verticalAlign=middle;whiteSpace=wrap;rounded=0;" vertex="1" parent="1">
          <mxGeometry x="300" y="220" width="60" height="30" as="geometry" />
        </mxCell>
        <mxCell id="lx1pQPTJVr5pFZ4xOF1r-15" value="&lt;font style=&quot;font-size: 15px;&quot;&gt;消费大粉up变更job&lt;/font&gt;" style="rounded=1;whiteSpace=wrap;html=1;strokeWidth=2;fillColor=#1ba1e2;fontColor=#ffffff;strokeColor=#006EAF;" vertex="1" parent="1">
          <mxGeometry x="440" y="230" width="140" height="60" as="geometry" />
        </mxCell>
        <mxCell id="lx1pQPTJVr5pFZ4xOF1r-16" style="edgeStyle=orthogonalEdgeStyle;rounded=0;orthogonalLoop=1;jettySize=auto;html=1;entryX=0;entryY=0.5;entryDx=0;entryDy=0;strokeWidth=2;" edge="1" parent="1" source="lx1pQPTJVr5pFZ4xOF1r-5" target="lx1pQPTJVr5pFZ4xOF1r-15">
          <mxGeometry relative="1" as="geometry" />
        </mxCell>
        <mxCell id="lx1pQPTJVr5pFZ4xOF1r-28" style="edgeStyle=orthogonalEdgeStyle;rounded=0;orthogonalLoop=1;jettySize=auto;html=1;entryX=1;entryY=0.5;entryDx=0;entryDy=0;strokeWidth=2;" edge="1" parent="1" source="lx1pQPTJVr5pFZ4xOF1r-15" target="lx1pQPTJVr5pFZ4xOF1r-18">
          <mxGeometry relative="1" as="geometry">
            <Array as="points">
              <mxPoint x="510" y="340" />
              <mxPoint x="310" y="340" />
              <mxPoint x="310" y="470" />
            </Array>
          </mxGeometry>
        </mxCell>
        <mxCell id="lx1pQPTJVr5pFZ4xOF1r-32" style="edgeStyle=orthogonalEdgeStyle;rounded=0;orthogonalLoop=1;jettySize=auto;html=1;entryX=1;entryY=0.5;entryDx=0;entryDy=0;strokeWidth=2;" edge="1" parent="1" source="lx1pQPTJVr5pFZ4xOF1r-15" target="lx1pQPTJVr5pFZ4xOF1r-20">
          <mxGeometry relative="1" as="geometry">
            <Array as="points">
              <mxPoint x="510" y="340" />
              <mxPoint x="440" y="340" />
              <mxPoint x="440" y="470" />
            </Array>
          </mxGeometry>
        </mxCell>
        <mxCell id="lx1pQPTJVr5pFZ4xOF1r-34" style="edgeStyle=orthogonalEdgeStyle;rounded=0;orthogonalLoop=1;jettySize=auto;html=1;entryX=1;entryY=0.5;entryDx=0;entryDy=0;strokeWidth=2;" edge="1" parent="1" source="lx1pQPTJVr5pFZ4xOF1r-15" target="lx1pQPTJVr5pFZ4xOF1r-21">
          <mxGeometry relative="1" as="geometry">
            <Array as="points">
              <mxPoint x="510" y="340" />
              <mxPoint x="560" y="340" />
              <mxPoint x="560" y="470" />
            </Array>
          </mxGeometry>
        </mxCell>
        <mxCell id="lx1pQPTJVr5pFZ4xOF1r-40" value="" style="group" vertex="1" connectable="0" parent="1">
          <mxGeometry x="130" y="590" width="120" height="120" as="geometry" />
        </mxCell>
        <mxCell id="lx1pQPTJVr5pFZ4xOF1r-41" value="" style="rounded=1;whiteSpace=wrap;html=1;fillColor=#1ba1e2;fontColor=#ffffff;strokeColor=#006EAF;" vertex="1" parent="lx1pQPTJVr5pFZ4xOF1r-40">
          <mxGeometry width="120" height="120" as="geometry" />
        </mxCell>
        <mxCell id="lx1pQPTJVr5pFZ4xOF1r-42" value="&lt;span style=&quot;font-size: 15px;&quot;&gt;大粉up缓存&lt;/span&gt;" style="shape=process;whiteSpace=wrap;html=1;backgroundOutline=1;strokeWidth=2;fillColor=#d80073;fontColor=#ffffff;strokeColor=#A50040;" vertex="1" parent="lx1pQPTJVr5pFZ4xOF1r-40">
          <mxGeometry x="7.5" y="50" width="105" height="60" as="geometry" />
        </mxCell>
        <mxCell id="lx1pQPTJVr5pFZ4xOF1r-43" value="&lt;font color=&quot;#ffffff&quot; style=&quot;font-size: 15px;&quot;&gt;outbox-1&lt;/font&gt;" style="text;strokeColor=none;align=center;fillColor=none;html=1;verticalAlign=middle;whiteSpace=wrap;rounded=0;" vertex="1" parent="lx1pQPTJVr5pFZ4xOF1r-40">
          <mxGeometry x="25" y="10" width="70" height="30" as="geometry" />
        </mxCell>
        <mxCell id="lx1pQPTJVr5pFZ4xOF1r-44" value="" style="group" vertex="1" connectable="0" parent="1">
          <mxGeometry x="287.5" y="590" width="122.5" height="120" as="geometry" />
        </mxCell>
        <mxCell id="lx1pQPTJVr5pFZ4xOF1r-45" value="" style="rounded=1;whiteSpace=wrap;html=1;fillColor=#1ba1e2;fontColor=#ffffff;strokeColor=#006EAF;" vertex="1" parent="lx1pQPTJVr5pFZ4xOF1r-44">
          <mxGeometry width="122.49999999999999" height="120" as="geometry" />
        </mxCell>
        <mxCell id="lx1pQPTJVr5pFZ4xOF1r-46" value="&lt;span style=&quot;font-size: 15px;&quot;&gt;大粉up缓存&lt;/span&gt;" style="shape=process;whiteSpace=wrap;html=1;backgroundOutline=1;strokeWidth=2;fillColor=#d80073;fontColor=#ffffff;strokeColor=#A50040;" vertex="1" parent="lx1pQPTJVr5pFZ4xOF1r-44">
          <mxGeometry x="7.656249999999999" y="50" width="107.18749999999999" height="60" as="geometry" />
        </mxCell>
        <mxCell id="lx1pQPTJVr5pFZ4xOF1r-47" value="&lt;font color=&quot;#ffffff&quot; style=&quot;font-size: 15px;&quot;&gt;outbox-2&lt;/font&gt;" style="text;strokeColor=none;align=center;fillColor=none;html=1;verticalAlign=middle;whiteSpace=wrap;rounded=0;" vertex="1" parent="lx1pQPTJVr5pFZ4xOF1r-44">
          <mxGeometry x="25.520833333333332" y="10" width="71.45833333333333" height="30" as="geometry" />
        </mxCell>
        <mxCell id="lx1pQPTJVr5pFZ4xOF1r-48" value="" style="group" vertex="1" connectable="0" parent="1">
          <mxGeometry x="470" y="590" width="120" height="120" as="geometry" />
        </mxCell>
        <mxCell id="lx1pQPTJVr5pFZ4xOF1r-49" value="" style="rounded=1;whiteSpace=wrap;html=1;fillColor=#1ba1e2;fontColor=#ffffff;strokeColor=#006EAF;" vertex="1" parent="lx1pQPTJVr5pFZ4xOF1r-48">
          <mxGeometry width="120" height="120" as="geometry" />
        </mxCell>
        <mxCell id="lx1pQPTJVr5pFZ4xOF1r-50" value="&lt;span style=&quot;font-size: 15px;&quot;&gt;大粉up缓存&lt;/span&gt;" style="shape=process;whiteSpace=wrap;html=1;backgroundOutline=1;strokeWidth=2;fillColor=#d80073;fontColor=#ffffff;strokeColor=#A50040;" vertex="1" parent="lx1pQPTJVr5pFZ4xOF1r-48">
          <mxGeometry x="7.5" y="50" width="105" height="60" as="geometry" />
        </mxCell>
        <mxCell id="lx1pQPTJVr5pFZ4xOF1r-51" value="&lt;font color=&quot;#ffffff&quot; style=&quot;font-size: 15px;&quot;&gt;outbox-n&amp;nbsp;&lt;/font&gt;" style="text;strokeColor=none;align=center;fillColor=none;html=1;verticalAlign=middle;whiteSpace=wrap;rounded=0;" vertex="1" parent="lx1pQPTJVr5pFZ4xOF1r-48">
          <mxGeometry x="25" y="10" width="70" height="30" as="geometry" />
        </mxCell>
        <mxCell id="lx1pQPTJVr5pFZ4xOF1r-52" style="edgeStyle=orthogonalEdgeStyle;rounded=0;orthogonalLoop=1;jettySize=auto;html=1;entryX=0;entryY=0.5;entryDx=0;entryDy=0;strokeWidth=2;exitX=0.5;exitY=0;exitDx=0;exitDy=0;" edge="1" parent="1" source="lx1pQPTJVr5pFZ4xOF1r-49" target="lx1pQPTJVr5pFZ4xOF1r-21">
          <mxGeometry relative="1" as="geometry">
            <mxPoint x="530" y="580" as="sourcePoint" />
            <Array as="points">
              <mxPoint x="530" y="538" />
              <mxPoint x="450" y="538" />
              <mxPoint x="450" y="470" />
            </Array>
          </mxGeometry>
        </mxCell>
        <mxCell id="lx1pQPTJVr5pFZ4xOF1r-53" style="edgeStyle=orthogonalEdgeStyle;rounded=0;orthogonalLoop=1;jettySize=auto;html=1;exitX=0.5;exitY=0;exitDx=0;exitDy=0;entryX=0;entryY=0.5;entryDx=0;entryDy=0;strokeWidth=2;" edge="1" parent="1" source="lx1pQPTJVr5pFZ4xOF1r-45" target="lx1pQPTJVr5pFZ4xOF1r-20">
          <mxGeometry relative="1" as="geometry" />
        </mxCell>
        <mxCell id="lx1pQPTJVr5pFZ4xOF1r-56" style="edgeStyle=orthogonalEdgeStyle;rounded=0;orthogonalLoop=1;jettySize=auto;html=1;exitX=0.5;exitY=0;exitDx=0;exitDy=0;entryX=0;entryY=0.5;entryDx=0;entryDy=0;strokeWidth=2;" edge="1" parent="1" source="lx1pQPTJVr5pFZ4xOF1r-41" target="lx1pQPTJVr5pFZ4xOF1r-18">
          <mxGeometry relative="1" as="geometry" />
        </mxCell>
        <mxCell id="lx1pQPTJVr5pFZ4xOF1r-59" value="" style="group" vertex="1" connectable="0" parent="1">
          <mxGeometry x="630" y="300" width="280" height="310" as="geometry" />
        </mxCell>
        <mxCell id="lx1pQPTJVr5pFZ4xOF1r-60" value="" style="rounded=0;whiteSpace=wrap;html=1;dashed=1;fillColor=#e1d5e7;strokeColor=#9673a6;" vertex="1" parent="lx1pQPTJVr5pFZ4xOF1r-59">
          <mxGeometry x="10" y="30" width="270" height="280" as="geometry" />
        </mxCell>
        <mxCell id="lx1pQPTJVr5pFZ4xOF1r-61" value="&lt;font color=&quot;#ffffff&quot; style=&quot;font-size: 15px;&quot;&gt;outbox-feed redis集群&lt;/font&gt;" style="ellipse;shape=cloud;whiteSpace=wrap;html=1;strokeWidth=2;fillColor=#e3c800;strokeColor=#B09500;fontColor=#000000;" vertex="1" parent="lx1pQPTJVr5pFZ4xOF1r-59">
          <mxGeometry y="110" width="220" height="100" as="geometry" />
        </mxCell>
        <mxCell id="lx1pQPTJVr5pFZ4xOF1r-62" value="mysql" style="shape=cylinder3;whiteSpace=wrap;html=1;boundedLbl=1;backgroundOutline=1;size=15;strokeWidth=2;fillColor=#a20025;fontColor=#ffffff;strokeColor=#6F0000;" vertex="1" parent="lx1pQPTJVr5pFZ4xOF1r-59">
          <mxGeometry x="220" y="40" width="50" height="70" as="geometry" />
        </mxCell>
        <mxCell id="lx1pQPTJVr5pFZ4xOF1r-63" value="mysql" style="shape=cylinder3;whiteSpace=wrap;html=1;boundedLbl=1;backgroundOutline=1;size=15;strokeWidth=2;fillColor=#a20025;fontColor=#ffffff;strokeColor=#6F0000;" vertex="1" parent="lx1pQPTJVr5pFZ4xOF1r-59">
          <mxGeometry x="220" y="130" width="50" height="70" as="geometry" />
        </mxCell>
        <mxCell id="lx1pQPTJVr5pFZ4xOF1r-64" value="&lt;font style=&quot;font-size: 15px;&quot;&gt;...&lt;/font&gt;" style="text;strokeColor=none;align=center;fillColor=none;html=1;verticalAlign=middle;whiteSpace=wrap;rounded=0;rotation=-90;" vertex="1" parent="lx1pQPTJVr5pFZ4xOF1r-59">
          <mxGeometry x="207" y="200" width="63" height="30" as="geometry" />
        </mxCell>
        <mxCell id="lx1pQPTJVr5pFZ4xOF1r-65" value="mysql" style="shape=cylinder3;whiteSpace=wrap;html=1;boundedLbl=1;backgroundOutline=1;size=15;strokeWidth=2;fillColor=#a20025;fontColor=#ffffff;strokeColor=#6F0000;" vertex="1" parent="lx1pQPTJVr5pFZ4xOF1r-59">
          <mxGeometry x="220" y="230" width="50" height="70" as="geometry" />
        </mxCell>
        <mxCell id="lx1pQPTJVr5pFZ4xOF1r-66" value="&lt;font style=&quot;font-size: 13px;&quot;&gt;outbox存储&lt;/font&gt;" style="text;strokeColor=none;align=center;fillColor=none;html=1;verticalAlign=middle;whiteSpace=wrap;rounded=0;" vertex="1" parent="lx1pQPTJVr5pFZ4xOF1r-59">
          <mxGeometry x="105" width="80" height="30" as="geometry" />
        </mxCell>
        <mxCell id="lx1pQPTJVr5pFZ4xOF1r-67" style="edgeStyle=orthogonalEdgeStyle;rounded=0;orthogonalLoop=1;jettySize=auto;html=1;entryX=0.378;entryY=1.002;entryDx=0;entryDy=0;entryPerimeter=0;strokeWidth=2;" edge="1" parent="1" source="lx1pQPTJVr5pFZ4xOF1r-41" target="lx1pQPTJVr5pFZ4xOF1r-60">
          <mxGeometry relative="1" as="geometry">
            <Array as="points">
              <mxPoint x="190" y="780" />
              <mxPoint x="742" y="780" />
            </Array>
          </mxGeometry>
        </mxCell>
        <mxCell id="lx1pQPTJVr5pFZ4xOF1r-69" value="&lt;font style=&quot;font-size: 19px;&quot;&gt;...&lt;/font&gt;" style="text;strokeColor=none;align=center;fillColor=none;html=1;verticalAlign=middle;whiteSpace=wrap;rounded=0;" vertex="1" parent="1">
          <mxGeometry x="420" y="635" width="40" height="30" as="geometry" />
        </mxCell>
        <mxCell id="lx1pQPTJVr5pFZ4xOF1r-70" style="edgeStyle=orthogonalEdgeStyle;rounded=0;orthogonalLoop=1;jettySize=auto;html=1;entryX=0.378;entryY=1.002;entryDx=0;entryDy=0;entryPerimeter=0;strokeWidth=2;" edge="1" parent="1" source="lx1pQPTJVr5pFZ4xOF1r-45" target="lx1pQPTJVr5pFZ4xOF1r-60">
          <mxGeometry relative="1" as="geometry">
            <Array as="points">
              <mxPoint x="349" y="780" />
              <mxPoint x="742" y="780" />
            </Array>
          </mxGeometry>
        </mxCell>
        <mxCell id="lx1pQPTJVr5pFZ4xOF1r-71" style="edgeStyle=orthogonalEdgeStyle;rounded=0;orthogonalLoop=1;jettySize=auto;html=1;entryX=0.381;entryY=1.002;entryDx=0;entryDy=0;entryPerimeter=0;strokeWidth=2;" edge="1" parent="1" source="lx1pQPTJVr5pFZ4xOF1r-49" target="lx1pQPTJVr5pFZ4xOF1r-60">
          <mxGeometry relative="1" as="geometry">
            <Array as="points">
              <mxPoint x="530" y="780" />
              <mxPoint x="743" y="780" />
            </Array>
          </mxGeometry>
        </mxCell>
        <mxCell id="lx1pQPTJVr5pFZ4xOF1r-18" value="&lt;font style=&quot;font-size: 15px;&quot; color=&quot;#ffffff&quot;&gt;list-1&lt;/font&gt;" style="verticalLabelPosition=bottom;verticalAlign=top;html=1;shape=process;whiteSpace=wrap;rounded=1;size=0.14;arcSize=6;strokeWidth=2;" vertex="1" parent="1">
          <mxGeometry x="220.6976744186046" y="460" width="70.46511627906976" height="20" as="geometry" />
        </mxCell>
        <mxCell id="lx1pQPTJVr5pFZ4xOF1r-20" value="&lt;font style=&quot;font-size: 15px;&quot; color=&quot;#ffffff&quot;&gt;list-2&lt;/font&gt;" style="verticalLabelPosition=bottom;verticalAlign=top;html=1;shape=process;whiteSpace=wrap;rounded=1;size=0.14;arcSize=6;strokeWidth=2;" vertex="1" parent="1">
          <mxGeometry x="349.88372093023247" y="460" width="70.46511627906976" height="20" as="geometry" />
        </mxCell>
        <mxCell id="lx1pQPTJVr5pFZ4xOF1r-21" value="&lt;font style=&quot;font-size: 15px;&quot; color=&quot;#ffffff&quot;&gt;list-n&lt;/font&gt;" style="verticalLabelPosition=bottom;verticalAlign=top;html=1;shape=process;whiteSpace=wrap;rounded=1;size=0.14;arcSize=6;strokeWidth=2;" vertex="1" parent="1">
          <mxGeometry x="467.33" y="460" width="70.47" height="20" as="geometry" />
        </mxCell>
        <mxCell id="lx1pQPTJVr5pFZ4xOF1r-73" value="rpush list-1 &amp;lt;up-a&amp;gt;" style="text;strokeColor=none;align=center;fillColor=none;html=1;verticalAlign=middle;whiteSpace=wrap;rounded=0;" vertex="1" parent="1">
          <mxGeometry x="200" y="340" width="110" height="30" as="geometry" />
        </mxCell>
        <mxCell id="lx1pQPTJVr5pFZ4xOF1r-74" value="lpop list-1" style="text;strokeColor=none;align=center;fillColor=none;html=1;verticalAlign=middle;whiteSpace=wrap;rounded=0;" vertex="1" parent="1">
          <mxGeometry x="100" y="555" width="110" height="30" as="geometry" />
        </mxCell>
        <mxCell id="lx1pQPTJVr5pFZ4xOF1r-75" value="rpush list-2 &amp;lt;up-a&amp;gt;" style="text;strokeColor=none;align=center;fillColor=none;html=1;verticalAlign=middle;whiteSpace=wrap;rounded=0;" vertex="1" parent="1">
          <mxGeometry x="330" y="340" width="110" height="30" as="geometry" />
        </mxCell>
        <mxCell id="lx1pQPTJVr5pFZ4xOF1r-76" value="rpush list-n &amp;lt;up-a&amp;gt;" style="text;strokeColor=none;align=center;fillColor=none;html=1;verticalAlign=middle;whiteSpace=wrap;rounded=0;" vertex="1" parent="1">
          <mxGeometry x="447.56" y="340" width="110" height="30" as="geometry" />
        </mxCell>
        <mxCell id="lx1pQPTJVr5pFZ4xOF1r-78" value="lpop list-2" style="text;strokeColor=none;align=center;fillColor=none;html=1;verticalAlign=middle;whiteSpace=wrap;rounded=0;" vertex="1" parent="1">
          <mxGeometry x="260" y="555" width="110" height="30" as="geometry" />
        </mxCell>
        <mxCell id="lx1pQPTJVr5pFZ4xOF1r-79" value="lpop list-2" style="text;strokeColor=none;align=center;fillColor=none;html=1;verticalAlign=middle;whiteSpace=wrap;rounded=0;" vertex="1" parent="1">
          <mxGeometry x="430" y="555" width="110" height="30" as="geometry" />
        </mxCell>
        <mxCell id="lx1pQPTJVr5pFZ4xOF1r-80" value="&lt;font style=&quot;font-size: 13px;&quot;&gt;拉取up-a的最新200条动态重构本地缓存&lt;/font&gt;" style="text;strokeColor=none;align=center;fillColor=none;html=1;verticalAlign=middle;whiteSpace=wrap;rounded=0;" vertex="1" parent="1">
          <mxGeometry x="315" y="780" width="250" height="20" as="geometry" />
        </mxCell>
        <mxCell id="lx1pQPTJVr5pFZ4xOF1r-82" style="edgeStyle=orthogonalEdgeStyle;rounded=0;orthogonalLoop=1;jettySize=auto;html=1;entryX=0;entryY=0.5;entryDx=0;entryDy=0;strokeWidth=2;" edge="1" parent="1" source="lx1pQPTJVr5pFZ4xOF1r-81">
          <mxGeometry relative="1" as="geometry">
            <mxPoint x="90" y="260" as="targetPoint" />
          </mxGeometry>
        </mxCell>
        <mxCell id="lx1pQPTJVr5pFZ4xOF1r-81" value="&lt;font color=&quot;#ffffff&quot; style=&quot;font-size: 13px;&quot;&gt;up-a&lt;/font&gt;" style="shape=actor;whiteSpace=wrap;html=1;strokeWidth=2;fillColor=#fa6800;fontColor=#000000;strokeColor=#C73500;" vertex="1" parent="1">
          <mxGeometry x="-60" y="230" width="40" height="60" as="geometry" />
        </mxCell>
        <mxCell id="lx1pQPTJVr5pFZ4xOF1r-83" value="&lt;font style=&quot;font-size: 13px;&quot;&gt;发布/删除动态&lt;/font&gt;" style="text;strokeColor=none;align=center;fillColor=none;html=1;verticalAlign=middle;whiteSpace=wrap;rounded=0;" vertex="1" parent="1">
          <mxGeometry x="-20" y="240" width="110" height="20" as="geometry" />
        </mxCell>
        <mxCell id="lx1pQPTJVr5pFZ4xOF1r-86" value="&lt;font color=&quot;#ffffff&quot; style=&quot;font-size: 15px;&quot;&gt;大粉up redis集群&lt;/font&gt;" style="text;strokeColor=none;align=center;fillColor=none;html=1;verticalAlign=middle;whiteSpace=wrap;rounded=0;" vertex="1" parent="1">
          <mxGeometry x="137.5" y="380" width="150" height="35" as="geometry" />
        </mxCell>
        <mxCell id="lx1pQPTJVr5pFZ4xOF1r-89" value="&lt;font style=&quot;font-size: 15px;&quot;&gt;outbox binlog&lt;/font&gt;" style="rounded=1;whiteSpace=wrap;html=1;fillColor=#1ba1e2;fontColor=#ffffff;strokeColor=#006EAF;" vertex="1" parent="1">
          <mxGeometry x="90" y="230" width="120" height="60" as="geometry" />
        </mxCell>
        <mxCell id="lx1pQPTJVr5pFZ4xOF1r-92" value="&lt;font style=&quot;font-size: 15px;&quot;&gt;1,2,...n&lt;br&gt;hash&lt;br&gt;&lt;/font&gt;" style="ellipse;whiteSpace=wrap;html=1;strokeWidth=2;fillColor=#60a917;fontColor=#ffffff;strokeColor=#2D7600;" vertex="1" parent="1">
          <mxGeometry x="17.5" y="430" width="122.5" height="80" as="geometry" />
        </mxCell>
        <mxCell id="lx1pQPTJVr5pFZ4xOF1r-93" style="edgeStyle=orthogonalEdgeStyle;rounded=0;orthogonalLoop=1;jettySize=auto;html=1;entryX=0;entryY=0.5;entryDx=0;entryDy=0;strokeWidth=2;" edge="1" parent="1" target="lx1pQPTJVr5pFZ4xOF1r-92">
          <mxGeometry relative="1" as="geometry">
            <mxPoint x="190" y="700" as="sourcePoint" />
            <Array as="points">
              <mxPoint x="190" y="730" />
              <mxPoint x="-2" y="730" />
              <mxPoint x="-2" y="470" />
            </Array>
          </mxGeometry>
        </mxCell>
        <mxCell id="lx1pQPTJVr5pFZ4xOF1r-95" style="edgeStyle=orthogonalEdgeStyle;rounded=0;orthogonalLoop=1;jettySize=auto;html=1;entryX=0;entryY=0.5;entryDx=0;entryDy=0;strokeWidth=2;" edge="1" parent="1" source="lx1pQPTJVr5pFZ4xOF1r-46" target="lx1pQPTJVr5pFZ4xOF1r-92">
          <mxGeometry relative="1" as="geometry">
            <Array as="points">
              <mxPoint x="349" y="730" />
              <mxPoint x="-2" y="730" />
              <mxPoint x="-2" y="470" />
            </Array>
          </mxGeometry>
        </mxCell>
        <mxCell id="lx1pQPTJVr5pFZ4xOF1r-96" style="edgeStyle=orthogonalEdgeStyle;rounded=0;orthogonalLoop=1;jettySize=auto;html=1;entryX=0;entryY=0.5;entryDx=0;entryDy=0;strokeWidth=2;" edge="1" parent="1" source="lx1pQPTJVr5pFZ4xOF1r-50" target="lx1pQPTJVr5pFZ4xOF1r-92">
          <mxGeometry relative="1" as="geometry">
            <Array as="points">
              <mxPoint x="530" y="730" />
              <mxPoint x="-2" y="730" />
              <mxPoint x="-2" y="470" />
            </Array>
          </mxGeometry>
        </mxCell>
        <mxCell id="lx1pQPTJVr5pFZ4xOF1r-97" value="&lt;font style=&quot;font-size: 13px;&quot;&gt;hset&amp;nbsp;&lt;/font&gt;outbox_bst_ins 1" style="text;strokeColor=none;align=center;fillColor=none;html=1;verticalAlign=middle;whiteSpace=wrap;rounded=0;" vertex="1" parent="1">
          <mxGeometry x="-20" y="710" width="250" height="20" as="geometry" />
        </mxCell>
        <mxCell id="lx1pQPTJVr5pFZ4xOF1r-98" value="&lt;font style=&quot;font-size: 13px;&quot;&gt;hset&amp;nbsp;&lt;/font&gt;outbox_bst_ins 2" style="text;strokeColor=none;align=center;fillColor=none;html=1;verticalAlign=middle;whiteSpace=wrap;rounded=0;" vertex="1" parent="1">
          <mxGeometry x="150" y="710" width="250" height="20" as="geometry" />
        </mxCell>
        <mxCell id="lx1pQPTJVr5pFZ4xOF1r-99" value="&lt;font style=&quot;font-size: 13px;&quot;&gt;hset&amp;nbsp;&lt;/font&gt;outbox_bst_ins 3" style="text;strokeColor=none;align=center;fillColor=none;html=1;verticalAlign=middle;whiteSpace=wrap;rounded=0;" vertex="1" parent="1">
          <mxGeometry x="340" y="710" width="250" height="20" as="geometry" />
        </mxCell>
      </root>
    </mxGraphModel>
  </diagram>
</mxfile>
